<?xml version="1.0" encoding="UTF-8" standalone="no"?>
<!-- Created with Inkscape (http://www.inkscape.org/) -->
<svg
   xmlns:dc="http://purl.org/dc/elements/1.1/"
   xmlns:cc="http://creativecommons.org/ns#"
   xmlns:rdf="http://www.w3.org/1999/02/22-rdf-syntax-ns#"
   xmlns:svg="http://www.w3.org/2000/svg"
   xmlns="http://www.w3.org/2000/svg"
   xmlns:sodipodi="http://sodipodi.sourceforge.net/DTD/sodipodi-0.dtd"
   xmlns:inkscape="http://www.inkscape.org/namespaces/inkscape"
   width="100"
   height="100"
   id="svg2"
   sodipodi:version="0.32"
   inkscape:version="0.46"
   version="1.0"
   sodipodi:docname="icon.svg"
   inkscape:output_extension="org.inkscape.output.svg.inkscape">
  <defs
     id="defs4">
    <inkscape:perspective
       sodipodi:type="inkscape:persp3d"
       inkscape:vp_x="0 : 526.18109 : 1"
       inkscape:vp_y="0 : 1000 : 0"
       inkscape:vp_z="744.09448 : 526.18109 : 1"
       inkscape:persp3d-origin="372.04724 : 350.78739 : 1"
       id="perspective10" />
  </defs>
  <sodipodi:namedview
     id="base"
     pagecolor="#ffffff"
     bordercolor="#666666"
     borderopacity="1.0"
     gridtolerance="10000"
     guidetolerance="10"
     objecttolerance="10"
     inkscape:pageopacity="0.0"
     inkscape:pageshadow="2"
     inkscape:zoom="5.6568542"
     inkscape:cx="13.692183"
     inkscape:cy="48.484281"
     inkscape:document-units="px"
     inkscape:current-layer="layer1"
     showgrid="true"
     inkscape:window-width="1680"
     inkscape:window-height="1004"
     inkscape:window-x="0"
     inkscape:window-y="46">
    <inkscape:grid
       type="xygrid"
       visible="true"
       enabled="true"
       id="grid2383" />
  </sodipodi:namedview>
  <metadata
     id="metadata7">
    <rdf:RDF>
      <cc:Work
         rdf:about="">
        <dc:format>image/svg+xml</dc:format>
        <dc:type
           rdf:resource="http://purl.org/dc/dcmitype/StillImage" />
      </cc:Work>
    </rdf:RDF>
  </metadata>
  <g
     inkscape:label="Layer 1"
     inkscape:groupmode="layer"
     id="layer1">
    <path
       style="fill:none;fill-rule:evenodd;stroke:#000000;stroke-width:1px;stroke-linecap:butt;stroke-linejoin:miter;stroke-opacity:1"
       d="M 0,0 L 0,100 L 100,100 L 100,0 L 0,0 z"
       id="path2389" />
    <path
       style="opacity:1;fill:#dcb35c;fill-opacity:1;stroke:#000000;stroke-width:0.17677668999999999;stroke-opacity:1"
       d="M 0.66360035,50.030541 L 0.66360035,0.62145415 L 50.072687,0.62145415 L 99.481773,0.62145415 L 99.481773,50.030541 L 99.481773,99.439627 L 50.072687,99.439627 L 0.66360035,99.439627 L 0.66360035,50.030541 z"
       id="path2395" />
    <path
       style="fill:none;fill-rule:evenodd;stroke:#000000;stroke-width:2;stroke-linecap:butt;stroke-linejoin:miter;stroke-opacity:1;stroke-miterlimit:4;stroke-dasharray:none"
       d="M 10,90 L 10,10 L 90,10 L 90,90 L 10,90"
       id="path3173" />
    <path
       style="fill:none;fill-rule:evenodd;stroke:#000000;stroke-width:1px;stroke-linecap:butt;stroke-linejoin:miter;stroke-opacity:1"
       d="M 50,10 L 50,90"
       id="path3175" />
    <path
       style="fill:none;fill-rule:evenodd;stroke:#000000;stroke-width:1px;stroke-linecap:butt;stroke-linejoin:miter;stroke-opacity:1"
       d="M 10,50 L 90,50"
       id="path3177" />
    <path
       style="fill:none;fill-rule:evenodd;stroke:#000000;stroke-width:1px;stroke-linecap:butt;stroke-linejoin:miter;stroke-opacity:1"
       d="M 70,10 L 70,90"
       id="path3179" />
    <path
       style="fill:none;fill-rule:evenodd;stroke:#000000;stroke-width:1px;stroke-linecap:butt;stroke-linejoin:miter;stroke-opacity:1"
       d="M 30,10 L 30,90"
       id="path3181" />
    <path
       style="fill:none;fill-rule:evenodd;stroke:#000000;stroke-width:1px;stroke-linecap:butt;stroke-linejoin:miter;stroke-opacity:1"
       d="M 11,70 L 89,70"
       id="path3185" />
    <path
       style="fill:none;fill-rule:evenodd;stroke:#000000;stroke-width:1px;stroke-linecap:butt;stroke-linejoin:miter;stroke-opacity:1"
       d="M 11,30 L 91,30"
       id="path3187" />
    <path
       sodipodi:type="arc"
       style="opacity:1;fill:#ffffff;fill-opacity:1;stroke:#000000;stroke-width:1;stroke-miterlimit:4;stroke-dasharray:none;stroke-opacity:1"
       id="path3189"
       sodipodi:cx="30"
       sodipodi:cy="50"
       sodipodi:rx="5"
       sodipodi:ry="5"
       d="M 35,50 A 5,5 0 1 1 25,50 A 5,5 0 1 1 35,50 z" />
    <path
       sodipodi:type="arc"
       style="opacity:1;fill:#ffffff;fill-opacity:1;stroke:#000000;stroke-width:1;stroke-miterlimit:4;stroke-dasharray:none;stroke-opacity:1"
       id="path3191"
       sodipodi:cx="50"
       sodipodi:cy="70"
       sodipodi:rx="5"
       sodipodi:ry="5"
       d="M 55,70 A 5,5 0 1 1 45,70 A 5,5 0 1 1 55,70 z" />
    <path
       sodipodi:type="arc"
       style="opacity:1;fill:#ffffff;fill-opacity:1;stroke:#000000;stroke-width:1;stroke-miterlimit:4;stroke-dasharray:none;stroke-opacity:1"
       id="path3193"
       sodipodi:cx="70"
       sodipodi:cy="70"
       sodipodi:rx="5"
       sodipodi:ry="5"
       d="M 75,70 A 5,5 0 1 1 65,70 A 5,5 0 1 1 75,70 z" />
    <path
       sodipodi:type="arc"
       style="opacity:1;fill:#000000;fill-opacity:1;stroke:#000000;stroke-width:1;stroke-miterlimit:4;stroke-dasharray:none;stroke-opacity:1"
       id="path3195"
       sodipodi:cx="50"
       sodipodi:cy="50"
       sodipodi:rx="5"
       sodipodi:ry="5"
       d="M 55,50 A 5,5 0 1 1 45,50 A 5,5 0 1 1 55,50 z" />
    <path
       sodipodi:type="arc"
       style="opacity:1;fill:#000000;fill-opacity:1;stroke:#000000;stroke-width:1;stroke-miterlimit:4;stroke-dasharray:none;stroke-opacity:1"
       id="path3197"
       sodipodi:cx="30"
       sodipodi:cy="30"
       sodipodi:rx="5"
       sodipodi:ry="5"
       d="M 35,30 A 5,5 0 1 1 25,30 A 5,5 0 1 1 35,30 z" />
    <path
       sodipodi:type="arc"
       style="opacity:1;fill:#000000;fill-opacity:1;stroke:#000000;stroke-width:1;stroke-miterlimit:4;stroke-dasharray:none;stroke-opacity:1"
       id="path3199"
       sodipodi:cx="70"
       sodipodi:cy="30"
       sodipodi:rx="5"
       sodipodi:ry="5"
       d="M 75,30 A 5,5 0 1 1 65,30 A 5,5 0 1 1 75,30 z" />
  </g>
</svg>
